<svg width="418" height="426" viewBox="0 0 418 426" fill="none" xmlns="http://www.w3.org/2000/svg">
<path d="M241.062 10.3352V1" stroke="#00004D" stroke-linecap="round" stroke-linejoin="round"/>
<path d="M241.062 25.3957V16.0605" stroke="#00004D" stroke-linecap="round" stroke-linejoin="round"/>
<path d="M238.195 13.0476H228.859" stroke="#00004D" stroke-linecap="round" stroke-linejoin="round"/>
<path d="M252.932 13.0476H243.597" stroke="#00004D" stroke-linecap="round" stroke-linejoin="round"/>
<path d="M13.2022 175.963V166.628" stroke="#00004D" stroke-linecap="round" stroke-linejoin="round"/>
<path d="M13.2022 191.023V181.688" stroke="#00004D" stroke-linecap="round" stroke-linejoin="round"/>
<path d="M10.3352 178.675H1" stroke="#00004D" stroke-linecap="round" stroke-linejoin="round"/>
<path d="M25.0731 178.675H15.7379" stroke="#00004D" stroke-linecap="round" stroke-linejoin="round"/>
<path d="M34.6017 30.3823L25.62 33.8486L24.3597 11.0001L34.6017 30.3823Z" fill="#51576F" stroke="#51576F" stroke-linejoin="round"/>
<path d="M40.9835 294.187C37.4589 294.187 34.6017 291.329 34.6017 287.805C34.6017 284.28 37.4589 281.423 40.9835 281.423C44.508 281.423 47.3652 284.28 47.3652 287.805C47.3652 291.329 44.508 294.187 40.9835 294.187Z" fill="#00004D"/>
<path d="M221.56 307.621C218.361 307.621 215.769 305.029 215.769 301.83C215.769 298.632 218.361 296.039 221.56 296.039C224.758 296.039 227.351 298.632 227.351 301.83C227.351 305.029 224.758 307.621 221.56 307.621Z" fill="#51576F" stroke="#51576F" stroke-miterlimit="10"/>
<path d="M204.353 65.5093L201.516 83.4726L190.171 72.8366L204.353 65.5093Z" fill="#51576F" stroke="#51576F" stroke-linejoin="round"/>
<path d="M387.455 248.265L404.355 242.119L417 261.381L403.291 274.028L392.653 262.801L400.1 254.057L403.528 259.611" stroke="#00004D" stroke-linecap="round" stroke-linejoin="round"/>
<path d="M392.812 347.422L380.502 364.164L392.812 372.2V347.422Z" fill="#00004D" stroke="#00004D" stroke-width="0.6" stroke-linejoin="round"/>
<path d="M69.5375 375.444C69.4939 375.334 69.4582 375.219 69.4273 375.104C66.0672 377.659 64.6531 380.098 63.0765 380.732C61.4999 381.366 58.6622 382.308 57.2433 383.962C57.1767 384.041 57.1093 384.12 57.0325 384.2L57.0372 384.205C57.3484 386.455 57.9895 388.646 58.9396 390.709C59.481 391.941 72.3261 411.965 78.2647 414.477C82.1273 416.111 90.2228 416.776 93.4719 416.983C93.6019 415.349 93.7549 411.332 92.3844 409.967C89.8632 407.663 87.0239 405.734 83.9536 404.239C80.7996 402.715 80.0902 401.297 79.697 399.324C79.3039 397.352 78.1252 390.501 80.2519 386.88C80.2519 386.88 79.9642 386.727 79.4798 386.434C77.3452 385.136 71.3876 381.109 69.5375 375.444Z" fill="#00004D"/>
<path d="M93.4727 416.979C93.6027 415.345 93.7557 411.328 92.3852 409.963C89.864 407.659 87.0247 405.73 83.9544 404.235C80.8004 402.711 80.091 401.293 79.6978 399.32C79.3047 397.348 78.126 390.497 80.2527 386.876C80.2527 386.876 79.965 386.723 79.4807 386.43C77.3484 385.137 71.3907 381.11 69.5407 375.445C69.4971 375.334 69.4614 375.22 69.4305 375.105C66.0704 377.659 64.6563 380.098 63.0797 380.733C61.5031 381.367 58.6653 382.309 57.2465 383.963C57.1799 384.042 57.1125 384.121 57.0356 384.2C55.593 385.802 53.2784 387.656 53.5083 389.775C53.7461 392.003 64.0428 407.863 68.2177 413.442C69.3093 414.921 70.6989 416.156 72.2968 417.066C73.5714 417.818 83.723 421.389 90.2601 421.23C91.0892 421.042 91.8389 420.6 92.4044 419.965C92.9698 419.33 93.3228 418.534 93.4141 417.689C93.4141 417.689 93.4442 417.415 93.4727 416.979Z" stroke="#00004D" stroke-miterlimit="10"/>
<path d="M93.4727 416.979C90.2228 416.773 82.1281 416.107 78.2655 414.473C72.3269 411.961 59.4794 391.937 58.9404 390.705C57.9902 388.642 57.3492 386.451 57.038 384.201" stroke="#00004D" stroke-width="0.605" stroke-miterlimit="10"/>
<path d="M74.2729 368.365C72.8623 370.833 71.2799 373.198 69.5375 375.444C69.245 375.823 69.0722 376.038 69.0722 376.038" stroke="#00004D" stroke-miterlimit="10"/>
<path d="M84.8168 378.488C83.7789 379.393 82.8666 380.432 82.1044 381.579C81.1072 383.199 79.9951 385.38 79.4775 386.429C79.2809 386.813 79.1707 387.048 79.1707 387.048" stroke="#00004D" stroke-miterlimit="10"/>
<path d="M95.8642 416.031H95.8697C98.3523 416.539 106.491 418.178 109.088 418.312C112.161 418.47 126.184 418.94 133.119 417.995C136.249 417.568 137.711 416.548 138.367 415.555H138.372C138.009 414.544 137.485 413.599 136.819 412.756C134.313 409.751 126.855 406.732 123.899 406.098C121.105 405.503 111.399 403.304 111.399 403.304C111.394 403.304 111.389 403.306 111.384 403.309C109.267 404.219 104.387 404.296 100.797 404.21H100.74C99.4938 404.21 98.2136 404.166 96.9438 404.051C96.8796 404.051 96.8155 404.046 96.752 404.037C96.7255 404.038 96.6989 404.036 96.6727 404.032C96.5871 404.027 96.5387 404.023 96.5387 404.023V404.018C96.4924 404.017 96.4461 404.014 96.4 404.008C96.1519 407.322 95.903 412.124 95.8642 416.031Z" fill="#00004D"/>
<path d="M96.6735 404.034C96.5879 404.029 96.5395 404.024 96.5395 404.024V404.019C96.5395 403.737 96.5205 392.943 96.4008 390.024C99.5929 391.563 110.238 389.957 110.238 389.957C110.238 389.957 110.199 400.348 111.397 403.305" stroke="#00004D" stroke-miterlimit="10"/>
<path d="M100.739 404.211C99.0229 404.168 97.6041 404.092 96.943 404.053C96.8709 404.048 96.8043 404.043 96.7512 404.039" stroke="#00004D" stroke-miterlimit="10"/>
<path d="M111.384 403.31C109.266 404.221 104.386 404.298 100.796 404.211" stroke="#00004D" stroke-miterlimit="10"/>
<path d="M96.5403 404.019C96.494 404.019 96.4477 404.016 96.4016 404.01C96.1519 407.322 95.903 412.124 95.8642 416.031C95.8261 419.518 95.9553 422.293 96.4016 422.683C97.3457 423.512 125.95 427.174 138.828 423.158C139.514 420.643 139.354 417.972 138.372 415.557C138.009 414.546 137.485 413.601 136.819 412.758C134.313 409.753 126.855 406.734 123.899 406.099C121.105 405.505 111.399 403.305 111.399 403.305" stroke="#00004D" stroke-miterlimit="10"/>
<path d="M96.7527 404.039C96.7262 404.039 96.6997 404.038 96.6735 404.034C96.6285 404.034 96.5835 404.029 96.5395 404.02" stroke="#00004D" stroke-miterlimit="10"/>
<path d="M100.739 404.211C99.493 404.211 98.2128 404.168 96.943 404.053C96.8788 404.053 96.8147 404.048 96.7512 404.039" stroke="#00004D" stroke-miterlimit="10"/>
<path d="M100.795 404.211H100.739" stroke="#00004D" stroke-miterlimit="10"/>
<path d="M111.384 403.31C107.884 403.89 104.343 404.191 100.795 404.211" stroke="#00004D" stroke-miterlimit="10"/>
<path d="M111.398 403.305C111.393 403.306 111.388 403.308 111.383 403.31" stroke="#00004D" stroke-miterlimit="10"/>
<path d="M138.367 415.556C137.711 416.548 136.249 417.569 133.119 417.996C126.184 418.94 112.161 418.471 109.088 418.313C106.495 418.179 98.3523 416.54 95.8697 416.031" stroke="#00004D" stroke-width="0.605" stroke-miterlimit="10"/>
<path d="M91.3468 330.665C91.3389 330.673 91.3389 330.673 91.3468 330.681C79.9087 345.607 67.9157 361.19 68.0425 361.824C67.8999 362.023 70.7376 364.908 74.2729 368.364C77.8716 371.883 82.1995 375.997 84.8153 378.486C86.2421 379.834 87.1616 380.706 87.1853 380.729C87.1853 380.729 89.5633 377.638 93.2968 372.763" stroke="#00004D" stroke-miterlimit="10"/>
<path d="M120.525 337.208C130.774 323.772 139.501 312.247 139.889 311.478C141.496 308.509 142.386 305.205 142.489 301.831C142.489 297.622 135.403 244.593 132.803 234.193C130.663 225.617 129.64 199.522 129.347 190.629C129.292 188.734 129.26 187.624 129.26 187.624L121.69 185.048C121.69 185.048 121.595 186.412 121.412 188.853V188.861C121.373 189.424 121.325 190.034 121.278 190.708" stroke="#00004D" stroke-miterlimit="10"/>
<path d="M83.872 239.155C85.8633 244.477 87.1374 250.04 87.6609 255.698C87.9304 258.298 89.7218 295.973 91.3468 330.668C91.3389 330.676 91.3389 330.676 91.3468 330.684C92.084 346.545 92.7894 361.788 93.2967 372.766C93.6772 381.026 93.9547 386.876 94.0419 388.77C96.5387 390.641 100.922 390.934 105.409 390.57C110.517 390.053 115.565 389.055 120.485 387.589C120.485 387.589 120.984 356.152 120.509 342.209C120.469 341.139 120.477 339.435 120.525 337.208C121.056 310.384 126.89 206.989 126.89 201.1V190.938L126.652 190.85L121.412 188.861V188.853L111.393 185.048L94.9851 178.81C92.3757 181.971 89.9387 185.271 87.6847 188.694C83.5232 194.988 78.9496 203.295 77.9667 210.556C76.0722 224.496 81.5099 233.009 83.872 239.155Z" stroke="#00004D" stroke-miterlimit="10"/>
<path d="M111.396 185.043C109.023 190.364 104.336 202.552 102.232 219.653C99.5001 241.896 103.21 360.905 105.409 390.566" stroke="#00004D" stroke-miterlimit="10"/>
<path d="M216.865 176.318C218.014 177.174 245.155 177.499 248.492 176.318C249.19 176.072 245.852 169.477 239.876 165.736C239.122 166.015 238.314 166.118 237.514 166.037C235.144 165.878 232.369 165.054 227.225 165.284C232.131 165.76 237.276 166.838 237.807 167.543C238.338 168.249 238.695 168.867 238.576 169.35C238.457 169.834 236.626 169.897 231.957 169.073C227.288 168.249 225.394 168.478 225.394 168.478C225.394 168.478 233.55 168.851 234.319 170.88C235.088 172.909 231.775 172.735 231.775 172.735C228.714 172.139 225.615 171.763 222.501 171.609C220.995 171.655 219.507 171.955 218.101 172.497C217.118 174.439 216.722 176.009 216.865 176.318Z" fill="#EA9010"/>
<path d="M202.224 171.554C204.753 171.919 209.493 173.322 213.559 173.322C215.109 173.308 216.646 173.03 218.101 172.497C219.507 171.955 220.995 171.655 222.501 171.609C225.615 171.763 228.714 172.139 231.775 172.735C231.775 172.735 235.088 172.909 234.319 170.88C233.55 168.851 225.394 168.478 225.394 168.478C225.394 168.478 227.288 168.241 231.957 169.073C236.626 169.905 238.457 169.834 238.576 169.35C238.695 168.867 238.338 168.241 237.807 167.543C237.276 166.846 232.131 165.76 227.225 165.284C232.369 165.054 235.144 165.878 237.514 166.037C238.314 166.119 239.122 166.016 239.876 165.736C240.542 165.466 240.843 165.094 240.875 164.935C240.938 164.634 240.993 163.929 238.988 163.223C237.006 162.518 230.974 161.994 228.358 161.701" stroke="#00004D" stroke-linejoin="round"/>
<path d="M202.193 165.934C203.423 166.088 204.669 166.069 205.894 165.878C207.844 165.522 218.363 161.21 221.557 160.322C228.127 158.862 234.878 158.384 241.588 158.903C242.943 159.616 242.65 160.56 241.588 161.091C240.557 161.606 230.039 161.844 228.358 161.701C228.311 161.693 228.263 161.693 228.232 161.685" stroke="#00004D" stroke-linecap="round" stroke-linejoin="round"/>
<path d="M197.262 175.057C199.624 175.406 201.907 174.392 202.058 173.797C202.152 173.053 202.207 172.304 202.224 171.554C202.232 171.292 202.24 171.023 202.248 170.737C202.28 169.675 202.296 168.51 202.28 167.543C202.264 166.893 202.24 166.33 202.193 165.934C202.185 165.739 202.139 165.548 202.058 165.371C201.701 164.856 197.548 163.913 196.62 163.714" stroke="#00004D" stroke-miterlimit="10"/>
<path d="M202.248 170.738L200.829 170.777L197.262 170.864" stroke="#00004D" stroke-miterlimit="10"/>
<path d="M197.787 167.132L202.283 167.54" stroke="#00004D" stroke-miterlimit="10"/>
<path d="M126.657 30.6804C127.914 32.9044 128.438 35.4687 128.153 38.0078C127.757 42.4982 127.262 46.8317 127.432 48.8799C127.602 50.9282 128.547 57.9409 130.202 60.3046C129.806 61.9589 127.051 61.8011 126.657 62.3528C126.263 62.9045 125.79 68.0251 125.79 70.862C125.79 73.699 121.299 73.7766 119.566 73.1465C117.832 72.5163 110.111 69.8371 105.7 66.2923" stroke="#00004D" stroke-miterlimit="10"/>
<path d="M114.847 71.333C114.325 74.3004 114.027 77.3027 113.954 80.3147C113.892 89.0038 115.492 91.1892 115.492 91.1892" stroke="#00004D" stroke-miterlimit="10"/>
<path d="M137.056 112.579C133.68 106.828 130.794 108.207 125.002 102.297C119.21 96.3882 115.903 91.4253 115.49 89.6522C113.541 89.2978 92.2655 87.9979 91.086 89.6522C89.9065 91.3064 86.5948 95.2071 86.5948 95.2071C86.5948 95.2071 85.2948 111.87 86.5948 120.498C87.8947 129.125 94.3954 140.825 95.9315 149.688C97.4677 158.552 94.3954 177.697 87.6585 188.687C94.0402 187.742 99.122 186.679 102.786 186.915C106.449 187.151 116.261 189.869 120.395 190.579C123.494 190.977 126.631 190.977 129.731 190.579C131.858 188.924 133.512 175.333 133.868 173.324C134.223 171.315 134.105 153.587 134.105 153.587L146.041 164.577C147.434 165.678 148.94 166.629 150.532 167.414C152.305 168.122 154.905 170.368 197.45 175.568C198.395 174.15 198.277 163.75 198.277 163.75L160.578 152.995C160.578 152.995 155.732 151.223 154.554 150.395C153.375 149.568 139.072 132.196 135.53 127.35C137.282 125.349 138.369 122.853 138.643 120.208C138.916 117.562 138.362 114.896 137.056 112.579V112.579Z" fill="#EA9010" stroke="#EA9010" stroke-miterlimit="10"/>
<path d="M130.635 27.647C130.538 26.2844 129.043 23.816 126.168 22.8577C123.292 21.8994 118.048 22.6817 115.625 22.3821C111.791 21.9065 103.405 18.4695 92.8608 21.8272C82.3168 25.185 80.6379 30.0535 79.6788 33.408C78.7197 36.7626 77.7622 42.0354 76.803 42.9937C75.8439 43.952 71.0523 48.2657 70.0932 53.5361C69.134 58.8065 71.0523 65.9975 71.0523 67.4354C71.0523 68.8733 65.7795 73.6657 66.7386 78.9377C67.6977 84.2097 72.4006 91.5411 76.8054 94.2749C79.06 95.7251 81.6299 96.6125 84.2988 96.8628C86.9678 97.113 89.6578 96.7186 92.1426 95.7128C97.2085 93.6622 97.3473 94.7545 104.125 94.7545C108.439 94.7545 113.701 90.8617 112.753 85.1688C112.273 82.2931 110.835 80.8552 110.356 78.459C109.876 76.0627 111.794 74.1453 111.794 72.2279C111.794 70.3104 110.356 67.9142 110.356 66.9559C110.356 65.9975 110.757 60.739 110.356 58.3285C109.88 55.4527 108.439 53.5361 108.439 50.1807C108.439 46.8254 114.19 44.9088 114.19 44.9088C114.19 44.9088 118.871 41.4813 121.379 37.7193C124.255 33.4056 126.652 34.364 128.09 33.4057C130.079 32.0724 130.806 30.0376 130.635 27.647Z" fill="#00004D"/>
<path d="M133.984 153.352C133.984 153.352 112.475 132.946 103.178 120.182C106.802 126.958 125.475 152.327 133.984 156.661C133.905 154.849 133.984 153.352 133.984 153.352Z" fill="#00004D"/>
<path d="M188.017 177.224H393.23C394.046 177.224 394.708 177.885 394.708 178.701V191.726C394.708 192.542 394.046 193.203 393.23 193.203H188.017C187.201 193.203 186.54 192.542 186.54 191.726V178.701C186.54 177.885 187.201 177.224 188.017 177.224Z" fill="#00004D"/>
<path d="M291.155 186.175V417.484" stroke="#00004D" stroke-miterlimit="10"/>
<path d="M273.226 189.823H309.082C309.363 189.823 309.59 190.051 309.59 190.331V197.557C309.59 197.838 309.363 198.065 309.082 198.065H273.226C272.946 198.065 272.718 197.838 272.718 197.557V190.331C272.718 190.051 272.946 189.823 273.226 189.823Z" fill="#00004D"/>
<path d="M251.422 405.875H330.715C330.967 405.875 331.171 406.079 331.171 406.332V420.455C331.171 420.707 330.967 420.912 330.715 420.912H251.422C251.17 420.912 250.966 420.707 250.966 420.455V406.332C250.966 406.079 251.17 405.875 251.422 405.875Z" fill="#00004D"/>
<path d="M291.694 149.831L302.094 177.011H279.522L291.694 149.831Z" stroke="#00004D" stroke-linejoin="round"/>
<path d="M299.484 116.701L273.327 177.012" stroke="#00004D" stroke-linecap="round" stroke-linejoin="round"/>
</svg>
