<svg width="602" height="159" viewBox="0 0 602 159" fill="none" xmlns="http://www.w3.org/2000/svg">
<rect width="373" height="150" fill="#EA9010"/>
<path d="M23.7 103.15C27.3 106.15 31.35 108.6 35.85 110.5C40.35 112.4 45.6 113.35 51.6 113.35C58.8 113.35 64.5 111.85 68.7 108.85C72.9 105.85 75 101.8 75 96.7C75 94.6 74.7 92.65 74.1 90.85C73.5 89.05 72.3 87.35 70.5 85.75C68.8 84.05 66.35 82.4 63.15 80.8C60.05 79.1 56 77.3 51 75.4C45.6 73.3 41 71.25 37.2 69.25C33.5 67.15 30.5 64.9 28.2 62.5C25.9 60 24.25 57.3 23.25 54.4C22.25 51.4 21.75 48 21.75 44.2C21.75 40.5 22.5 37 24 33.7C25.6 30.4 27.9 27.55 30.9 25.15C34 22.65 37.75 20.7 42.15 19.3C46.65 17.9 51.75 17.2 57.45 17.2C63.65 17.2 69.2 17.85 74.1 19.15C79 20.35 83.85 22.1 88.65 24.4L83.4 36.55C80 34.55 76 32.9 71.4 31.6C66.9 30.2 62.15 29.5 57.15 29.5C50.55 29.5 45.35 30.8 41.55 33.4C37.75 35.9 35.85 39.25 35.85 43.45C35.85 45.45 36.1 47.25 36.6 48.85C37.2 50.35 38.3 51.85 39.9 53.35C41.6 54.75 43.9 56.2 46.8 57.7C49.8 59.2 53.75 60.85 58.65 62.65C64.45 64.85 69.35 67.1 73.35 69.4C77.35 71.7 80.55 74.15 82.95 76.75C85.35 79.35 87.05 82.15 88.05 85.15C89.15 88.15 89.7 91.45 89.7 95.05C89.7 99.95 88.75 104.3 86.85 108.1C84.95 111.9 82.3 115.15 78.9 117.85C75.6 120.45 71.6 122.45 66.9 123.85C62.2 125.15 57.1 125.8 51.6 125.8C44.3 125.8 37.65 124.85 31.65 122.95C25.65 120.95 20.6 118.35 16.5 115.15L23.7 103.15ZM104.639 46C113.839 46 119.589 49.65 121.889 56.95C122.589 55.85 123.639 54.55 125.039 53.05C126.539 51.55 128.339 50.15 130.439 48.85C132.539 47.55 134.939 46.45 137.639 45.55C140.339 44.65 143.339 44.2 146.639 44.2C151.139 44.2 155.439 45.1 159.539 46.9C163.739 48.7 167.389 51.3 170.489 54.7C173.689 58.1 176.239 62.3 178.139 67.3C180.039 72.3 180.989 77.95 180.989 84.25C180.989 90.45 180.039 96.1 178.139 101.2C176.339 106.3 173.839 110.7 170.639 114.4C167.539 118 163.939 120.8 159.839 122.8C155.739 124.8 151.439 125.8 146.939 125.8C142.239 125.8 137.889 124.9 133.889 123.1C129.989 121.2 126.739 119.05 124.139 116.65V157H110.639V65.95C110.639 62.55 109.789 60.15 108.089 58.75C106.489 57.25 104.389 56.5 101.789 56.5L104.639 46ZM167.189 84.7C167.189 80.2 166.539 76.2 165.239 72.7C164.039 69.1 162.339 66.05 160.139 63.55C158.039 61.05 155.539 59.15 152.639 57.85C149.839 56.55 146.839 55.9 143.639 55.9C139.339 55.9 135.439 57 131.939 59.2C128.539 61.3 125.939 63.6 124.139 66.1V104.5C126.739 107.2 129.689 109.45 132.989 111.25C136.389 112.95 140.139 113.8 144.239 113.8C147.639 113.8 150.739 113.1 153.539 111.7C156.339 110.3 158.739 108.35 160.739 105.85C162.839 103.25 164.439 100.2 165.539 96.7C166.639 93.1 167.189 89.1 167.189 84.7ZM208.331 90.55C209.231 97.85 211.781 103.55 215.981 107.65C220.181 111.75 225.731 113.8 232.631 113.8C237.131 113.8 241.181 113.35 244.781 112.45C248.381 111.45 251.831 110.2 255.131 108.7L258.281 120.25C254.681 121.95 250.631 123.3 246.131 124.3C241.631 125.3 236.581 125.8 230.981 125.8C225.381 125.8 220.331 124.9 215.831 123.1C211.331 121.2 207.481 118.55 204.281 115.15C201.181 111.65 198.781 107.4 197.081 102.4C195.381 97.3 194.531 91.5 194.531 85C194.531 79.2 195.381 73.8 197.081 68.8C198.781 63.8 201.181 59.5 204.281 55.9C207.381 52.2 211.081 49.35 215.381 47.35C219.681 45.25 224.481 44.2 229.781 44.2C235.381 44.2 240.281 45.15 244.481 47.05C248.681 48.95 252.181 51.55 254.981 54.85C257.781 58.15 259.881 62 261.281 66.4C262.681 70.8 263.381 75.45 263.381 80.35C263.381 83.85 263.231 87.25 262.931 90.55H208.331ZM229.481 55.9C223.581 55.9 218.731 57.9 214.931 61.9C211.231 65.9 208.981 71.8 208.181 79.6H250.931C250.931 72 249.031 66.15 245.231 62.05C241.431 57.95 236.181 55.9 229.481 55.9ZM294.123 98.2C294.123 103.6 295.223 107.6 297.423 110.2C299.723 112.8 302.873 114.1 306.873 114.1C308.773 114.1 310.623 113.9 312.423 113.5C314.223 113 315.823 112.45 317.223 111.85L320.523 122.8C318.723 123.6 316.473 124.3 313.773 124.9C311.173 125.5 308.273 125.8 305.073 125.8C301.573 125.8 298.323 125.3 295.323 124.3C292.423 123.3 289.873 121.75 287.673 119.65C285.473 117.55 283.723 114.85 282.423 111.55C281.223 108.25 280.623 104.25 280.623 99.55V13H294.123V98.2ZM344.514 98.2C344.514 103.6 345.614 107.6 347.814 110.2C350.114 112.8 353.264 114.1 357.264 114.1C359.164 114.1 361.014 113.9 362.814 113.5C364.614 113 366.214 112.45 367.614 111.85L370.914 122.8C369.114 123.6 366.864 124.3 364.164 124.9C361.564 125.5 358.664 125.8 355.464 125.8C351.964 125.8 348.714 125.3 345.714 124.3C342.814 123.3 340.264 121.75 338.064 119.65C335.864 117.55 334.114 114.85 332.814 111.55C331.614 108.25 331.014 104.25 331.014 99.55V13H344.514V98.2ZM397.119 124H383.619V46H397.119V124ZM390.369 32.65C387.769 32.65 385.519 31.75 383.619 29.95C381.819 28.05 380.919 25.8 380.919 23.2C380.919 20.3 381.769 18 383.469 16.3C385.169 14.6 387.469 13.75 390.369 13.75C392.969 13.75 395.169 14.7 396.969 16.6C398.869 18.4 399.819 20.6 399.819 23.2C399.819 26.1 398.969 28.4 397.269 30.1C395.569 31.8 393.269 32.65 390.369 32.65ZM434.169 59.05C436.969 54.85 440.519 51.35 444.819 48.55C449.219 45.65 454.419 44.2 460.419 44.2C469.219 44.2 475.769 46.85 480.069 52.15C484.469 57.45 486.669 64.45 486.669 73.15V124H473.169V74.65C473.169 68.95 471.869 64.45 469.269 61.15C466.669 57.75 462.969 56.05 458.169 56.05C455.869 56.05 453.619 56.5 451.419 57.4C449.219 58.2 447.069 59.35 444.969 60.85C442.969 62.35 441.069 64.1 439.269 66.1C437.569 68.1 436.019 70.2 434.619 72.4V124H421.119V46H434.169V59.05ZM540.789 44.2C545.289 44.2 549.289 44.95 552.789 46.45C556.389 47.95 559.489 49.8 562.089 52V46H574.389V122.2C574.389 128.7 573.539 134.25 571.839 138.85C570.139 143.45 567.689 147.2 564.489 150.1C561.389 153.1 557.639 155.3 553.239 156.7C548.839 158.1 543.939 158.8 538.539 158.8C533.839 158.8 529.339 158.25 525.039 157.15C520.739 156.05 516.889 154.4 513.489 152.2L518.439 140.5C520.839 142.4 523.639 143.95 526.839 145.15C530.039 146.45 533.939 147.1 538.539 147.1C545.639 147.1 551.189 145.25 555.189 141.55C559.289 137.85 561.339 131.85 561.339 123.55V113.95C559.339 116.35 556.439 118.65 552.639 120.85C548.939 122.95 544.489 124 539.289 124C534.889 124 530.589 123.15 526.389 121.45C522.189 119.65 518.489 117.1 515.289 113.8C512.089 110.4 509.489 106.3 507.489 101.5C505.589 96.6 504.639 91 504.639 84.7C504.639 78.9 505.589 73.55 507.489 68.65C509.389 63.65 511.939 59.35 515.139 55.75C518.439 52.15 522.289 49.35 526.689 47.35C531.089 45.25 535.789 44.2 540.789 44.2ZM542.289 112C546.289 112 549.889 111.1 553.089 109.3C556.289 107.5 558.889 105.4 560.889 103V62.2C558.589 60.6 555.939 59.15 552.939 57.85C549.939 56.55 546.339 55.9 542.139 55.9C539.039 55.9 536.039 56.55 533.139 57.85C530.339 59.05 527.839 60.85 525.639 63.25C523.439 65.65 521.689 68.6 520.389 72.1C519.089 75.5 518.439 79.45 518.439 83.95C518.439 88.25 519.089 92.15 520.389 95.65C521.689 99.05 523.439 102 525.639 104.5C527.839 106.9 530.339 108.75 533.139 110.05C536.039 111.35 539.089 112 542.289 112Z" fill="#00004D"/>
</svg>
